<svg xmlns="http://www.w3.org/2000/svg" xmlns:xlink="http://www.w3.org/1999/xlink" width="500" zoomAndPan="magnify" viewBox="0 0 375 374.999991" height="500" preserveAspectRatio="xMidYMid meet" version="1.0"><defs><g/><clipPath id="45699e9d9e"><path d="M 130.253906 105 L 245 105 L 245 153 L 130.253906 153 Z M 130.253906 105 " clip-rule="nonzero"/></clipPath><clipPath id="5ab09f769b"><path d="M 130.253906 156 L 245 156 L 245 203.863281 L 130.253906 203.863281 Z M 130.253906 156 " clip-rule="nonzero"/></clipPath></defs><rect x="-37.5" width="450" fill="#ffffff" y="-37.499999" height="449.999989" fill-opacity="1"/><rect x="-37.5" width="450" fill="#02033b" y="-37.499999" height="449.999989" fill-opacity="1"/><g clip-path="url(#45699e9d9e)"><path fill="#8000ff" d="M 136.023438 152.558594 L 163.285156 152.558594 L 158.457031 146.644531 C 157.601562 145.597656 157.175781 144.398438 157.175781 143.050781 L 155.265625 143.050781 C 155.851562 141.382812 156.558594 139.769531 157.390625 138.210938 C 158.226562 136.652344 159.175781 135.164062 160.238281 133.753906 C 161.304688 132.339844 162.472656 131.019531 163.742188 129.785156 C 165.011719 128.554688 166.367188 127.425781 167.8125 126.402344 C 169.261719 125.378906 170.777344 124.472656 172.363281 123.683594 C 173.949219 122.894531 175.585938 122.230469 177.273438 121.695312 C 178.964844 121.15625 180.683594 120.753906 182.4375 120.480469 C 184.191406 120.210938 185.953125 120.074219 187.726562 120.074219 C 189.5 120.074219 191.261719 120.210938 193.015625 120.480469 C 194.765625 120.753906 196.488281 121.15625 198.175781 121.695312 C 199.867188 122.230469 201.503906 122.894531 203.089844 123.683594 C 204.675781 124.472656 206.191406 125.378906 207.636719 126.402344 C 209.082031 127.425781 210.441406 128.554688 211.710938 129.785156 C 212.980469 131.019531 214.148438 132.339844 215.210938 133.753906 C 216.277344 135.164062 217.226562 136.652344 218.058594 138.210938 C 218.894531 139.769531 219.601562 141.382812 220.183594 143.050781 L 218.273438 143.050781 C 218.28125 144.394531 217.859375 145.59375 217.015625 146.644531 L 212.164062 152.558594 L 239.429688 152.558594 L 244.585938 146.128906 C 244.8125 145.847656 244.945312 145.523438 244.988281 145.164062 C 245.027344 144.804688 244.96875 144.460938 244.816406 144.132812 C 244.65625 143.804688 244.421875 143.539062 244.113281 143.34375 C 243.800781 143.148438 243.464844 143.050781 243.097656 143.050781 L 236.011719 143.050781 C 235.691406 141.710938 235.316406 140.386719 234.882812 139.078125 C 234.449219 137.769531 233.964844 136.480469 233.425781 135.214844 C 232.882812 133.945312 232.292969 132.703125 231.648438 131.484375 C 231.003906 130.265625 230.308594 129.074219 229.5625 127.914062 C 228.820312 126.753906 228.027344 125.625 227.1875 124.53125 C 226.347656 123.433594 225.464844 122.378906 224.539062 121.355469 C 223.609375 120.335938 222.640625 119.351562 221.628906 118.414062 C 220.621094 117.472656 219.570312 116.574219 218.484375 115.722656 C 217.402344 114.867188 216.28125 114.0625 215.128906 113.300781 C 213.972656 112.539062 212.792969 111.828125 211.578125 111.167969 C 210.367188 110.503906 209.125 109.894531 207.863281 109.335938 C 206.597656 108.777344 205.3125 108.273438 204.007812 107.820312 C 202.699219 107.371094 201.375 106.972656 200.035156 106.632812 C 198.695312 106.289062 197.34375 106.003906 195.980469 105.773438 C 194.617188 105.546875 193.246094 105.375 191.867188 105.257812 C 190.488281 105.144531 189.109375 105.085938 187.726562 105.085938 C 186.34375 105.085938 184.960938 105.144531 183.582031 105.257812 C 182.207031 105.375 180.835938 105.546875 179.46875 105.773438 C 178.105469 106.003906 176.753906 106.289062 175.414062 106.632812 C 174.074219 106.972656 172.75 107.371094 171.445312 107.820312 C 170.140625 108.273438 168.851562 108.777344 167.589844 109.335938 C 166.324219 109.894531 165.085938 110.503906 163.875 111.167969 C 162.660156 111.828125 161.476562 112.539062 160.324219 113.300781 C 159.171875 114.0625 158.050781 114.867188 156.964844 115.722656 C 155.878906 116.574219 154.832031 117.472656 153.820312 118.414062 C 152.8125 119.351562 151.84375 120.335938 150.914062 121.355469 C 149.988281 122.378906 149.101562 123.433594 148.265625 124.53125 C 147.425781 125.625 146.632812 126.753906 145.886719 127.914062 C 145.144531 129.074219 144.449219 130.265625 143.804688 131.484375 C 143.160156 132.703125 142.566406 133.945312 142.027344 135.214844 C 141.488281 136.480469 141 137.769531 140.570312 139.078125 C 140.136719 140.386719 139.761719 141.710938 139.4375 143.050781 L 132.355469 143.050781 C 131.988281 143.050781 131.648438 143.148438 131.339844 143.34375 C 131.027344 143.539062 130.796875 143.804688 130.636719 144.132812 C 130.480469 144.460938 130.425781 144.804688 130.464844 145.164062 C 130.507812 145.523438 130.640625 145.847656 130.867188 146.128906 Z M 221.425781 123.578125 C 223.984375 126.335938 226.164062 129.359375 227.96875 132.65625 C 229.769531 135.949219 231.140625 139.414062 232.078125 143.050781 L 224.136719 143.050781 C 222.472656 137.757812 219.773438 133.054688 216.042969 128.941406 Z M 154.027344 123.578125 L 159.410156 128.941406 C 155.679688 133.054688 152.980469 137.757812 151.316406 143.050781 L 143.371094 143.050781 C 144.3125 139.414062 145.679688 135.949219 147.484375 132.65625 C 149.289062 129.359375 151.46875 126.335938 154.027344 123.578125 Z M 154.027344 123.578125 " fill-opacity="1" fill-rule="nonzero"/></g><g clip-path="url(#5ab09f769b)"><path fill="#8000ff" d="M 239.429688 156.359375 L 209.070312 156.359375 L 201.320312 165.867188 L 220.183594 165.867188 C 219.601562 167.535156 218.894531 169.148438 218.058594 170.707031 C 217.226562 172.265625 216.277344 173.753906 215.210938 175.164062 C 214.148438 176.578125 212.980469 177.898438 211.710938 179.132812 C 210.441406 180.363281 209.082031 181.492188 207.636719 182.515625 C 206.191406 183.539062 204.675781 184.445312 203.089844 185.234375 C 201.503906 186.023438 199.867188 186.6875 198.175781 187.222656 C 196.488281 187.761719 194.765625 188.164062 193.015625 188.4375 C 191.261719 188.707031 189.5 188.84375 187.726562 188.84375 C 185.953125 188.84375 184.191406 188.707031 182.4375 188.4375 C 180.683594 188.164062 178.964844 187.761719 177.273438 187.222656 C 175.585938 186.6875 173.949219 186.023438 172.363281 185.234375 C 170.777344 184.445312 169.261719 183.539062 167.8125 182.515625 C 166.367188 181.492188 165.011719 180.363281 163.742188 179.132812 C 162.472656 177.898438 161.304688 176.578125 160.238281 175.164062 C 159.175781 173.753906 158.226562 172.265625 157.390625 170.707031 C 156.558594 169.148438 155.851562 167.535156 155.265625 165.867188 L 174.074219 165.867188 L 166.324219 156.359375 L 136.023438 156.359375 L 130.867188 162.789062 C 130.660156 163.0625 130.535156 163.367188 130.492188 163.707031 C 130.453125 164.046875 130.5 164.375 130.636719 164.6875 C 130.78125 165.039062 131.007812 165.320312 131.320312 165.53125 C 131.632812 165.746094 131.976562 165.859375 132.355469 165.867188 L 139.4375 165.867188 C 139.761719 167.207031 140.136719 168.53125 140.570312 169.839844 C 141 171.148438 141.488281 172.4375 142.027344 173.703125 C 142.566406 174.972656 143.160156 176.214844 143.804688 177.433594 C 144.449219 178.652344 145.144531 179.84375 145.886719 181.003906 C 146.632812 182.164062 147.425781 183.292969 148.265625 184.386719 C 149.101562 185.484375 149.988281 186.539062 150.914062 187.5625 C 151.84375 188.582031 152.8125 189.5625 153.820312 190.503906 C 154.832031 191.445312 155.878906 192.34375 156.964844 193.195312 C 158.050781 194.050781 159.171875 194.855469 160.324219 195.617188 C 161.476562 196.378906 162.660156 197.089844 163.875 197.75 C 165.085938 198.414062 166.324219 199.023438 167.589844 199.582031 C 168.851562 200.140625 170.140625 200.644531 171.445312 201.097656 C 172.75 201.546875 174.074219 201.945312 175.414062 202.285156 C 176.753906 202.628906 178.105469 202.914062 179.46875 203.144531 C 180.835938 203.371094 182.207031 203.542969 183.582031 203.660156 C 184.960938 203.773438 186.34375 203.832031 187.726562 203.832031 C 189.109375 203.832031 190.488281 203.773438 191.867188 203.660156 C 193.246094 203.542969 194.617188 203.371094 195.980469 203.144531 C 197.34375 202.914062 198.695312 202.628906 200.035156 202.285156 C 201.375 201.945312 202.699219 201.546875 204.007812 201.097656 C 205.3125 200.644531 206.597656 200.140625 207.863281 199.582031 C 209.125 199.023438 210.367188 198.414062 211.578125 197.75 C 212.792969 197.089844 213.972656 196.378906 215.128906 195.617188 C 216.28125 194.855469 217.402344 194.050781 218.484375 193.195312 C 219.570312 192.34375 220.621094 191.445312 221.628906 190.503906 C 222.640625 189.5625 223.609375 188.582031 224.539062 187.5625 C 225.464844 186.539062 226.347656 185.484375 227.1875 184.386719 C 228.027344 183.292969 228.820312 182.164062 229.5625 181.003906 C 230.308594 179.84375 231.003906 178.652344 231.648438 177.433594 C 232.292969 176.214844 232.882812 174.972656 233.425781 173.703125 C 233.964844 172.4375 234.449219 171.148438 234.882812 169.839844 C 235.316406 168.53125 235.691406 167.207031 236.011719 165.867188 L 243.097656 165.867188 C 243.464844 165.867188 243.800781 165.769531 244.113281 165.574219 C 244.421875 165.378906 244.65625 165.113281 244.816406 164.785156 C 244.949219 164.46875 245 164.140625 244.957031 163.800781 C 244.917969 163.460938 244.792969 163.15625 244.585938 162.882812 Z M 154.027344 185.339844 C 151.46875 182.582031 149.289062 179.558594 147.484375 176.261719 C 145.679688 172.96875 144.3125 169.503906 143.371094 165.867188 L 151.316406 165.867188 C 152.980469 171.160156 155.679688 175.859375 159.410156 179.976562 Z M 221.425781 185.339844 L 216.042969 179.976562 C 219.773438 175.859375 222.472656 171.160156 224.136719 165.867188 L 232.078125 165.867188 C 231.140625 169.503906 229.769531 172.96875 227.96875 176.261719 C 226.164062 179.558594 223.984375 182.582031 221.425781 185.339844 Z M 221.425781 185.339844 " fill-opacity="1" fill-rule="nonzero"/></g><path fill="#8000ff" d="M 213.539062 141.433594 L 201.128906 133.828125 C 200.828125 133.632812 200.496094 133.539062 200.136719 133.542969 L 175.316406 133.542969 C 174.957031 133.539062 174.625 133.632812 174.324219 133.828125 L 161.910156 141.433594 C 161.417969 141.730469 161.117188 142.160156 161.015625 142.726562 C 160.917969 143.292969 161.050781 143.800781 161.414062 144.25 L 186.238281 174.671875 C 186.417969 174.894531 186.640625 175.070312 186.898438 175.195312 C 187.160156 175.320312 187.4375 175.382812 187.726562 175.382812 C 188.015625 175.382812 188.289062 175.320312 188.550781 175.195312 C 188.8125 175.070312 189.035156 174.894531 189.214844 174.671875 L 214.035156 144.25 C 214.402344 143.800781 214.535156 143.292969 214.4375 142.726562 C 214.335938 142.160156 214.035156 141.730469 213.539062 141.433594 Z M 175.851562 137.347656 L 182.476562 137.347656 L 179.609375 141.148438 L 169.644531 141.148438 Z M 166.914062 144.953125 L 178.808594 144.953125 L 187.097656 169.671875 Z M 199.601562 137.347656 L 205.808594 141.148438 L 195.839844 141.148438 L 192.976562 137.347656 Z M 188.355469 169.671875 L 196.640625 144.953125 L 208.539062 144.953125 Z M 188.355469 169.671875 " fill-opacity="1" fill-rule="nonzero"/><g fill="#ffffff" fill-opacity="1"><g transform="translate(87.808592, 237.917915)"><g><path d="M 11.109375 0.390625 C 8.171875 0.390625 5.882812 -0.40625 4.25 -2 C 2.625 -3.601562 1.8125 -5.878906 1.8125 -8.828125 L 1.8125 -19.796875 L 7.40625 -19.796875 L 7.40625 -9 C 7.40625 -5.820312 8.660156 -4.234375 11.171875 -4.234375 C 13.660156 -4.234375 14.90625 -5.820312 14.90625 -9 L 14.90625 -19.796875 L 20.421875 -19.796875 L 20.421875 -8.828125 C 20.421875 -5.878906 19.601562 -3.601562 17.96875 -2 C 16.34375 -0.40625 14.054688 0.390625 11.109375 0.390625 Z M 11.109375 0.390625 "/></g></g></g><g fill="#ffffff" fill-opacity="1"><g transform="translate(110.025396, 237.917915)"><g><path d="M 1.984375 -19.796875 L 7.578125 -19.796875 L 7.578125 -4.4375 L 17.03125 -4.4375 L 17.03125 0 L 1.984375 0 Z M 1.984375 -19.796875 "/></g></g></g><g fill="#ffffff" fill-opacity="1"><g transform="translate(127.267441, 237.917915)"><g><path d="M 6.1875 -15.359375 L 0.109375 -15.359375 L 0.109375 -19.796875 L 17.84375 -19.796875 L 17.84375 -15.359375 L 11.796875 -15.359375 L 11.796875 0 L 6.1875 0 Z M 6.1875 -15.359375 "/></g></g></g><g fill="#ffffff" fill-opacity="1"><g transform="translate(145.216136, 237.917915)"><g><path d="M 10.640625 -5.265625 L 7.578125 -5.265625 L 7.578125 0 L 1.984375 0 L 1.984375 -19.796875 L 11.03125 -19.796875 C 12.820312 -19.796875 14.375 -19.5 15.6875 -18.90625 C 17.007812 -18.3125 18.03125 -17.460938 18.75 -16.359375 C 19.46875 -15.253906 19.828125 -13.957031 19.828125 -12.46875 C 19.828125 -11.039062 19.488281 -9.789062 18.8125 -8.71875 C 18.144531 -7.65625 17.191406 -6.820312 15.953125 -6.21875 L 20.21875 0 L 14.21875 0 Z M 14.171875 -12.46875 C 14.171875 -13.394531 13.878906 -14.113281 13.296875 -14.625 C 12.710938 -15.132812 11.84375 -15.390625 10.6875 -15.390625 L 7.578125 -15.390625 L 7.578125 -9.59375 L 10.6875 -9.59375 C 11.84375 -9.59375 12.710938 -9.84375 13.296875 -10.34375 C 13.878906 -10.84375 14.171875 -11.550781 14.171875 -12.46875 Z M 14.171875 -12.46875 "/></g></g></g><g fill="#ffffff" fill-opacity="1"><g transform="translate(166.132719, 237.917915)"><g><path d="M 15.25 -3.84375 L 6.875 -3.84375 L 5.3125 0 L -0.390625 0 L 8.34375 -19.796875 L 13.859375 -19.796875 L 22.625 0 L 16.796875 0 Z M 13.609375 -7.96875 L 11.0625 -14.3125 L 8.515625 -7.96875 Z M 13.609375 -7.96875 "/></g></g></g><g fill="#ffffff" fill-opacity="1"><g transform="translate(188.349522, 237.917915)"><g><path d="M 22.0625 -19.796875 L 13.578125 0 L 8.0625 0 L -0.390625 -19.796875 L 5.65625 -19.796875 L 11.03125 -6.90625 L 16.515625 -19.796875 Z M 22.0625 -19.796875 "/></g></g></g><g fill="#ffffff" fill-opacity="1"><g transform="translate(210.001009, 237.917915)"><g><path d="M 17.875 -4.328125 L 17.875 0 L 1.984375 0 L 1.984375 -19.796875 L 17.5 -19.796875 L 17.5 -15.46875 L 7.515625 -15.46875 L 7.515625 -12.125 L 16.3125 -12.125 L 16.3125 -7.953125 L 7.515625 -7.953125 L 7.515625 -4.328125 Z M 17.875 -4.328125 "/></g></g></g><g fill="#ffffff" fill-opacity="1"><g transform="translate(228.995534, 237.917915)"><g><path d="M 10.640625 -5.265625 L 7.578125 -5.265625 L 7.578125 0 L 1.984375 0 L 1.984375 -19.796875 L 11.03125 -19.796875 C 12.820312 -19.796875 14.375 -19.5 15.6875 -18.90625 C 17.007812 -18.3125 18.03125 -17.460938 18.75 -16.359375 C 19.46875 -15.253906 19.828125 -13.957031 19.828125 -12.46875 C 19.828125 -11.039062 19.488281 -9.789062 18.8125 -8.71875 C 18.144531 -7.65625 17.191406 -6.820312 15.953125 -6.21875 L 20.21875 0 L 14.21875 0 Z M 14.171875 -12.46875 C 14.171875 -13.394531 13.878906 -14.113281 13.296875 -14.625 C 12.710938 -15.132812 11.84375 -15.390625 10.6875 -15.390625 L 7.578125 -15.390625 L 7.578125 -9.59375 L 10.6875 -9.59375 C 11.84375 -9.59375 12.710938 -9.84375 13.296875 -10.34375 C 13.878906 -10.84375 14.171875 -11.550781 14.171875 -12.46875 Z M 14.171875 -12.46875 "/></g></g></g><g fill="#ffffff" fill-opacity="1"><g transform="translate(249.912117, 237.917915)"><g><path d="M 8.9375 0.390625 C 7.332031 0.390625 5.773438 0.191406 4.265625 -0.203125 C 2.765625 -0.597656 1.539062 -1.125 0.59375 -1.78125 L 2.4375 -5.90625 C 3.320312 -5.320312 4.347656 -4.847656 5.515625 -4.484375 C 6.679688 -4.128906 7.832031 -3.953125 8.96875 -3.953125 C 11.113281 -3.953125 12.1875 -4.492188 12.1875 -5.578125 C 12.1875 -6.140625 11.878906 -6.554688 11.265625 -6.828125 C 10.648438 -7.097656 9.664062 -7.382812 8.3125 -7.6875 C 6.820312 -8.007812 5.578125 -8.351562 4.578125 -8.71875 C 3.578125 -9.09375 2.71875 -9.679688 2 -10.484375 C 1.289062 -11.296875 0.9375 -12.390625 0.9375 -13.765625 C 0.9375 -14.972656 1.265625 -16.0625 1.921875 -17.03125 C 2.578125 -18.007812 3.5625 -18.78125 4.875 -19.34375 C 6.1875 -19.90625 7.796875 -20.1875 9.703125 -20.1875 C 11.003906 -20.1875 12.285156 -20.039062 13.546875 -19.75 C 14.804688 -19.457031 15.921875 -19.03125 16.890625 -18.46875 L 15.15625 -14.3125 C 13.269531 -15.332031 11.441406 -15.84375 9.671875 -15.84375 C 8.554688 -15.84375 7.742188 -15.675781 7.234375 -15.34375 C 6.722656 -15.007812 6.46875 -14.582031 6.46875 -14.0625 C 6.46875 -13.53125 6.769531 -13.128906 7.375 -12.859375 C 7.976562 -12.597656 8.953125 -12.328125 10.296875 -12.046875 C 11.804688 -11.722656 13.054688 -11.378906 14.046875 -11.015625 C 15.035156 -10.648438 15.890625 -10.066406 16.609375 -9.265625 C 17.335938 -8.460938 17.703125 -7.375 17.703125 -6 C 17.703125 -4.8125 17.367188 -3.734375 16.703125 -2.765625 C 16.046875 -1.804688 15.054688 -1.039062 13.734375 -0.46875 C 12.421875 0.101562 10.820312 0.390625 8.9375 0.390625 Z M 8.9375 0.390625 "/></g></g></g><g fill="#ffffff" fill-opacity="1"><g transform="translate(268.199992, 237.917915)"><g><path d="M 17.875 -4.328125 L 17.875 0 L 1.984375 0 L 1.984375 -19.796875 L 17.5 -19.796875 L 17.5 -15.46875 L 7.515625 -15.46875 L 7.515625 -12.125 L 16.3125 -12.125 L 16.3125 -7.953125 L 7.515625 -7.953125 L 7.515625 -4.328125 Z M 17.875 -4.328125 "/></g></g></g><g fill="#ffffff" fill-opacity="1"><g transform="translate(125.985033, 263.800178)"><g><path d="M 13.40625 0 L 10.46875 0 L 4.4375 -8.0625 L 4.4375 0 L 1.3125 0 L 1.3125 -13.109375 L 4.25 -13.109375 L 10.296875 -5.015625 L 10.296875 -13.109375 L 13.40625 -13.109375 Z M 13.40625 0 "/></g></g></g><g fill="#ffffff" fill-opacity="1"><g transform="translate(141.640069, 263.800178)"><g><path d="M 11.03125 -10.484375 L 4.640625 -10.484375 L 4.640625 -7.453125 L 10.515625 -7.453125 L 10.515625 -4.828125 L 4.640625 -4.828125 L 4.640625 0 L 1.3125 0 L 1.3125 -13.109375 L 11.03125 -13.109375 Z M 11.03125 -10.484375 "/></g></g></g><g fill="#ffffff" fill-opacity="1"><g transform="translate(153.891152, 263.800178)"><g><path d="M 11.328125 -10.421875 L 7.375 -10.421875 L 7.375 0 L 4.046875 0 L 4.046875 -10.421875 L 0.125 -10.421875 L 0.125 -13.125 L 11.328125 -13.125 Z M 11.328125 -10.421875 "/></g></g></g><g fill="#ffffff" fill-opacity="1"><g transform="translate(166.273155, 263.800178)"><g/></g></g><g fill="#ffffff" fill-opacity="1"><g transform="translate(171.566711, 263.800178)"><g><path d="M 16.046875 0 L 12.609375 0 L 10.1875 -9.0625 L 7.71875 0 L 4.265625 0 L -0.015625 -13.109375 L 3.53125 -13.109375 L 6.109375 -3.46875 L 8.609375 -13.109375 L 11.875 -13.109375 L 14.4375 -3.46875 L 16.953125 -13.109375 L 20.359375 -13.109375 Z M 16.046875 0 "/></g></g></g><g fill="#ffffff" fill-opacity="1"><g transform="translate(192.739148, 263.800178)"><g><path d="M 7.53125 -13.21875 C 9.5625 -13.21875 11.25 -12.582031 12.59375 -11.3125 C 13.945312 -10.050781 14.625 -8.46875 14.625 -6.5625 C 14.625 -4.65625 13.945312 -3.054688 12.59375 -1.765625 C 11.238281 -0.484375 9.550781 0.15625 7.53125 0.15625 C 5.507812 0.15625 3.820312 -0.484375 2.46875 -1.765625 C 1.125 -3.046875 0.453125 -4.644531 0.453125 -6.5625 C 0.453125 -8.476562 1.125 -10.066406 2.46875 -11.328125 C 3.820312 -12.585938 5.507812 -13.21875 7.53125 -13.21875 Z M 7.5625 -10.421875 C 6.539062 -10.421875 5.664062 -10.050781 4.9375 -9.3125 C 4.21875 -8.570312 3.859375 -7.648438 3.859375 -6.546875 C 3.859375 -5.453125 4.222656 -4.523438 4.953125 -3.765625 C 5.679688 -3.015625 6.550781 -2.640625 7.5625 -2.640625 C 8.570312 -2.640625 9.425781 -3.015625 10.125 -3.765625 C 10.832031 -4.523438 11.1875 -5.453125 11.1875 -6.546875 C 11.1875 -7.648438 10.832031 -8.570312 10.125 -9.3125 C 9.425781 -10.050781 8.570312 -10.421875 7.5625 -10.421875 Z M 7.5625 -10.421875 "/></g></g></g><g fill="#ffffff" fill-opacity="1"><g transform="translate(208.749546, 263.800178)"><g><path d="M 9.203125 0 L 7.265625 -3.6875 L 4.640625 -3.6875 L 4.640625 0 L 1.3125 0 L 1.3125 -13.109375 L 7.171875 -13.109375 C 8.898438 -13.109375 10.238281 -12.707031 11.1875 -11.90625 C 12.132812 -11.113281 12.609375 -9.988281 12.609375 -8.53125 C 12.609375 -6.507812 11.816406 -5.109375 10.234375 -4.328125 L 12.984375 0 Z M 4.640625 -6.3125 L 7.171875 -6.3125 C 7.890625 -6.3125 8.445312 -6.488281 8.84375 -6.84375 C 9.25 -7.207031 9.453125 -7.734375 9.453125 -8.421875 C 9.453125 -9.097656 9.25 -9.609375 8.84375 -9.953125 C 8.445312 -10.304688 7.890625 -10.484375 7.171875 -10.484375 L 4.640625 -10.484375 Z M 4.640625 -6.3125 "/></g></g></g><g fill="#ffffff" fill-opacity="1"><g transform="translate(223.244998, 263.800178)"><g><path d="M 4.640625 -2.796875 L 10.203125 -2.796875 L 10.203125 0 L 1.3125 0 L 1.3125 -13.109375 L 4.640625 -13.109375 Z M 4.640625 -2.796875 "/></g></g></g><g fill="#ffffff" fill-opacity="1"><g transform="translate(234.673148, 263.800178)"><g><path d="M 1.3125 -13.109375 L 6.9375 -13.109375 C 9 -13.109375 10.675781 -12.5 11.96875 -11.28125 C 13.257812 -10.070312 13.90625 -8.492188 13.90625 -6.546875 C 13.90625 -4.617188 13.25 -3.046875 11.9375 -1.828125 C 10.632812 -0.609375 8.925781 0 6.8125 0 L 1.3125 0 Z M 4.640625 -10.4375 L 4.640625 -2.65625 L 7.015625 -2.65625 C 8.035156 -2.65625 8.875 -3.015625 9.53125 -3.734375 C 10.1875 -4.453125 10.515625 -5.382812 10.515625 -6.53125 C 10.515625 -7.675781 10.171875 -8.613281 9.484375 -9.34375 C 8.796875 -10.070312 7.925781 -10.4375 6.875 -10.4375 Z M 4.640625 -10.4375 "/></g></g></g></svg>